<?xml version="1.0" standalone="no"?>
<!DOCTYPE svg PUBLIC "-//W3C//DTD SVG 20010904//EN"
 "http://www.w3.org/TR/2001/REC-SVG-20010904/DTD/svg10.dtd">
<svg version="1.0" xmlns="http://www.w3.org/2000/svg"
 width="151.000000pt" height="120.000000pt" viewBox="0 0 151.000000 120.000000"
 preserveAspectRatio="xMidYMid meet">
<metadata>
Created by potrace 1.16, written by Peter Selinger 2001-2019
</metadata>
<g transform="translate(0.000000,120.000000) scale(0.100000,-0.100000)"
fill="#000000" stroke="none">
<path d="M0 600 l0 -600 755 0 755 0 0 600 0 600 -755 0 -755 0 0 -600z m989
393 c5 -10 16 -52 26 -94 l16 -77 79 -4 c90 -5 133 -26 128 -61 -3 -24 1 -23
-130 -11 -48 5 -58 3 -58 -9 0 -31 13 -47 39 -47 42 0 125 -44 158 -84 52 -63
64 -131 38 -207 -46 -130 -199 -187 -326 -121 -152 79 -156 292 -8 379 28 17
35 36 23 67 -5 14 -10 13 -42 -3 -79 -41 -151 -146 -152 -221 -1 -54 -10 -62
-71 -58 -51 3 -54 5 -60 33 l-7 30 -1 -30 c-3 -87 -59 -171 -136 -206 -94 -43
-224 -10 -281 73 -39 56 -46 164 -16 225 45 87 123 129 226 120 36 -3 53 -1
41 3 -11 5 -33 9 -48 9 -15 1 -53 14 -85 30 -31 15 -79 36 -105 46 l-48 18 3
51 3 51 75 3 c81 3 188 -21 331 -74 86 -31 77 -33 178 31 29 19 78 39 107 45
39 8 51 15 47 26 -3 8 -17 14 -32 14 -40 0 -65 22 -57 48 7 20 14 22 71 22 51
0 66 -4 74 -17z"/>
<path d="M280 833 c8 -3 45 -18 82 -34 36 -16 80 -29 96 -29 53 0 149 -57 192
-114 21 -28 43 -62 48 -76 8 -22 10 -20 35 32 42 94 115 160 209 191 10 4 15
12 12 21 -12 31 -122 -6 -194 -65 -46 -39 -89 -38 -204 5 -50 19 -118 41 -151
49 -65 16 -149 30 -125 20z"/>
<path d="M334 601 c-96 -59 -108 -168 -25 -245 24 -23 42 -30 84 -34 90 -7
155 42 165 124 6 57 -13 58 -33 0 -18 -50 -41 -74 -86 -88 -29 -8 -45 -8 -67
1 -108 45 -105 182 4 220 38 13 44 13 87 -8 49 -24 78 -21 56 6 -37 44 -131
57 -185 24z"/>
<path d="M1080 605 c0 -9 11 -20 25 -25 47 -18 75 -58 75 -107 0 -56 -28 -97
-75 -113 -49 -16 -89 -4 -125 36 -41 47 -42 100 -1 147 21 23 27 37 21 47 -7
12 -15 9 -40 -15 -61 -58 -64 -146 -8 -204 39 -40 66 -51 121 -51 111 0 181
118 129 220 -28 57 -122 106 -122 65z"/>
</g>
</svg>
